<svg xmlns="http://www.w3.org/2000/svg" xmlns:xlink="http://www.w3.org/1999/xlink" width="1024" zoomAndPan="magnify" viewBox="0 0 768 767.999994" height="1024" preserveAspectRatio="xMidYMid meet" version="1.0"><path fill="#4f46e5" d="M 25.410156 259.328125 C 24.234375 260.375 22.925781 262.726562 22.535156 264.296875 C 22.144531 265.992188 22.011719 304.023438 22.273438 348.847656 C 22.796875 427.777344 22.925781 430.652344 25.671875 440.585938 C 31.160156 460.578125 41.351562 476.78125 56.121094 489.328125 C 86.699219 515.464844 131.261719 517.554688 164.847656 494.554688 C 177.261719 486.0625 177.261719 486.324219 164.324219 474.300781 C 158.183594 468.679688 151.386719 462.40625 149.164062 460.578125 L 145.113281 457.179688 L 136.226562 461.492188 C 127.863281 465.28125 126.164062 465.675781 114.140625 465.675781 C 103.035156 465.675781 100.160156 465.152344 94.800781 462.539062 C 85.652344 457.964844 76.636719 449.210938 71.800781 440.191406 C 68.144531 433.398438 67.359375 430.261719 66.574219 420.199219 L 65.789062 408.175781 L 57.949219 407.261719 C 47.101562 405.824219 39.523438 401.640625 34.296875 393.929688 C 24.625 380.078125 25.410156 365.179688 36.257812 353.550781 C 52.851562 335.515625 83.039062 344.273438 88.007812 368.578125 C 88.921875 373.542969 92.710938 375.242188 98.851562 373.542969 C 110.613281 370.277344 128.125 373.023438 138.710938 379.6875 C 148.382812 385.699219 152.695312 391.710938 159.097656 407.914062 L 160.535156 411.441406 L 181.703125 411.179688 L 203.003906 410.789062 L 202.875 404.125 C 202.222656 381.648438 180.136719 350.804688 155.4375 337.738281 C 139.625 329.375 130.214844 327.804688 98.199219 327.804688 C 81.339844 327.804688 69.1875 327.285156 67.621094 326.5 C 65.269531 325.191406 65.136719 323.363281 65.136719 293.175781 C 65.136719 265.992188 64.875 261.027344 63.046875 259.328125 C 60.039062 256.324219 28.414062 256.324219 25.410156 259.328125 Z M 25.410156 259.328125 " fill-opacity="1" fill-rule="nonzero"/><path fill="#4f46e5" d="M 229.140625 260.503906 L 225.875 263.640625 L 225.875 349.890625 C 225.875 438.625 226.398438 449.992188 231.234375 463.714844 C 236.722656 479.265625 250.3125 494.816406 265.339844 502.394531 C 272.921875 506.1875 285.859375 509.453125 294.089844 509.453125 C 303.761719 509.453125 304.285156 508.277344 304.285156 487.238281 C 304.285156 477.304688 303.890625 468.289062 303.5 467.113281 C 302.976562 465.675781 300.886719 465.023438 296.574219 465.023438 C 285.464844 464.890625 273.835938 456.789062 270.4375 446.855469 C 269.390625 443.71875 269 416.015625 269 352.503906 C 269 264.164062 269 262.464844 266.386719 259.851562 C 264.035156 257.5 262.074219 257.238281 248.089844 257.238281 C 233.0625 257.238281 232.148438 257.367188 229.140625 260.503906 Z M 229.140625 260.503906 " fill-opacity="1" fill-rule="nonzero"/><path fill="#4f46e5" d="M 332.640625 261.289062 C 312.777344 274.359375 320.488281 304.675781 344.140625 306.636719 C 360.605469 307.941406 372.238281 297.878906 372.238281 282.199219 C 372.238281 274.226562 370.539062 269.523438 365.964844 264.554688 C 361.128906 259.328125 355.378906 257.238281 346.363281 257.238281 C 339.960938 257.238281 337.738281 257.890625 332.640625 261.289062 Z M 332.640625 261.289062 " fill-opacity="1" fill-rule="nonzero"/><path fill="#4f46e5" d="M 588.253906 258.546875 C 586.6875 259.199219 584.988281 261.027344 584.726562 262.726562 C 584.332031 264.425781 583.679688 318.921875 583.289062 384 C 582.765625 479.003906 582.894531 502.917969 584.332031 505.53125 C 585.902344 508.800781 586.292969 508.800781 604.195312 509.191406 C 628.503906 509.714844 627.066406 511.414062 627.066406 480.832031 C 627.066406 468.15625 626.542969 457.179688 626.019531 456.398438 C 625.5 455.613281 623.015625 454.4375 620.53125 453.914062 C 603.152344 450.386719 591.519531 432.351562 595.570312 414.96875 C 598.316406 403.078125 606.417969 394.714844 618.703125 391.054688 C 623.667969 389.617188 625.628906 388.3125 626.28125 386.222656 C 626.675781 384.652344 627.066406 356.164062 627.066406 322.839844 C 627.066406 264.164062 626.9375 262.335938 624.453125 259.851562 C 622.101562 257.5 620.140625 257.238281 606.550781 257.367188 C 598.054688 257.367188 589.820312 257.890625 588.253906 258.546875 Z M 588.253906 258.546875 " fill-opacity="1" fill-rule="nonzero"/><path fill="#4f46e5" d="M 327.414062 330.160156 C 325.453125 332.378906 325.191406 340.351562 325.191406 418.890625 C 325.191406 500.828125 325.324219 505.269531 327.542969 507.230469 C 329.503906 509.0625 333.035156 509.453125 347.148438 509.453125 C 363.351562 509.453125 364.398438 509.324219 366.226562 506.578125 C 368.054688 503.964844 368.316406 493.378906 368.316406 417.714844 C 368.316406 341.398438 368.054688 331.726562 366.226562 329.898438 C 364.660156 328.199219 360.867188 327.804688 346.886719 327.804688 C 331.726562 327.804688 329.242188 328.066406 327.414062 330.160156 Z M 327.414062 330.160156 " fill-opacity="1" fill-rule="nonzero"/><path fill="#4f46e5" d="M 691.363281 331.464844 C 663.265625 360.738281 639.613281 386.613281 639.089844 388.574219 C 638.828125 389.488281 640.65625 391.449219 643.007812 392.886719 C 649.28125 396.804688 655.425781 403.46875 657.644531 409.089844 C 660.519531 415.753906 660.257812 429.085938 657.253906 435.617188 C 655.03125 440.453125 647.714844 448.164062 642.09375 451.429688 C 640.394531 452.34375 640.003906 453.390625 640.917969 454.828125 C 641.570312 456.003906 653.464844 468.679688 667.445312 483.1875 L 692.667969 509.453125 L 715.929688 509.453125 C 735.402344 509.453125 739.582031 509.0625 741.28125 507.363281 C 746.507812 502.136719 745.855469 501.21875 682.34375 437.316406 L 665.746094 420.71875 L 689.140625 396.152344 C 702.078125 382.691406 719.589844 364.398438 727.953125 355.640625 C 740.367188 342.835938 743.371094 338.914062 743.371094 335.910156 C 743.371094 328.589844 740.890625 327.804688 716.714844 327.804688 L 694.757812 327.804688 Z M 691.363281 331.464844 " fill-opacity="1" fill-rule="nonzero"/><path fill="#4f46e5" d="M 457.179688 331.074219 C 445.941406 333.6875 429.34375 341.789062 420.980469 348.847656 C 412.355469 356.035156 404.386719 366.488281 399.417969 377.074219 C 391.578125 393.667969 391.449219 394.585938 390.925781 451.039062 C 390.402344 497.167969 390.535156 503.441406 392.363281 506.316406 C 394.453125 509.324219 394.847656 509.453125 412.09375 509.453125 C 428.691406 509.453125 429.738281 509.324219 431.566406 506.578125 C 433.398438 504.09375 433.65625 497.039062 433.65625 456.265625 C 433.65625 416.015625 433.917969 408.042969 435.75 402.6875 C 440.585938 388.441406 450.777344 379.035156 465.28125 375.375 C 481.355469 371.191406 496.253906 375.765625 507.753906 388.441406 C 518.339844 399.941406 518.601562 401.511719 518.601562 456.398438 C 518.601562 497.039062 518.863281 504.09375 520.691406 506.578125 C 522.519531 509.324219 523.566406 509.453125 540.03125 509.453125 C 555.453125 509.453125 557.675781 509.191406 559.632812 506.96875 C 561.726562 504.75 561.855469 500.042969 561.464844 451.824219 L 561.070312 399.027344 L 557.019531 387.789062 C 547.613281 361.390625 527.617188 341.527344 502.394531 333.554688 C 488.9375 329.375 469.59375 328.199219 457.179688 331.074219 Z M 457.179688 331.074219 " fill-opacity="1" fill-rule="nonzero"/><path fill="#4f46e5" d="M 48.019531 364.265625 C 44.882812 367.402344 44.226562 369.230469 44.226562 374.199219 C 44.226562 379.425781 44.882812 380.992188 48.671875 384.785156 C 52.332031 388.441406 54.160156 389.226562 58.601562 389.226562 C 63.046875 389.226562 64.875 388.441406 68.535156 384.785156 C 73.632812 379.6875 74.414062 373.152344 70.757812 367.011719 C 66.3125 359.300781 54.421875 357.992188 48.019531 364.265625 Z M 48.019531 364.265625 " fill-opacity="1" fill-rule="nonzero"/><path fill="#4f46e5" d="M 106.695312 394.324219 C 95.714844 397.851562 89.050781 405.691406 87.746094 416.40625 C 85.914062 432.21875 97.546875 445.417969 113.359375 445.417969 C 121.328125 445.417969 126.035156 443.71875 131 439.148438 C 147.464844 423.726562 138.320312 396.152344 115.839844 393.800781 C 112.703125 393.539062 108.652344 393.800781 106.695312 394.324219 Z M 106.695312 394.324219 " fill-opacity="1" fill-rule="nonzero"/><path fill="#4f46e5" d="M 622.492188 405.824219 C 615.566406 407.652344 610.078125 415.101562 610.078125 422.8125 C 610.078125 431.042969 618.441406 438.886719 627.328125 438.886719 C 633.207031 438.886719 637.519531 436.402344 641.179688 431.042969 C 647.058594 422.417969 643.007812 411.179688 632.6875 406.738281 C 628.375 404.90625 626.9375 404.777344 622.492188 405.824219 Z M 622.492188 405.824219 " fill-opacity="1" fill-rule="nonzero"/><path fill="#4f46e5" d="M 161.058594 428.039062 C 160.664062 429.34375 159.097656 433.65625 157.660156 437.578125 L 154.785156 444.636719 L 169.683594 458.75 C 177.785156 466.460938 185.234375 472.863281 186.148438 472.863281 C 191.246094 472.863281 203.660156 442.9375 203.660156 430.523438 L 203.660156 425.816406 L 182.75 425.816406 C 163.933594 425.816406 161.710938 426.078125 161.058594 428.039062 Z M 161.058594 428.039062 " fill-opacity="1" fill-rule="nonzero"/></svg>